<svg xmlns="http://www.w3.org/2000/svg" width="358.992" height="59.275" viewBox="0 0 358.992 59.275"><defs><style>.a{fill:#fff;}</style></defs><g transform="translate(0 0)"><path class="a" d="M14.631,10.31,26.68,46.617,38.74,10.31H53.3V57.617H43.548l.8-36.826L32.214,57.617H21.676L9.155,20.4l.992,37.218H0V10.31Z" transform="translate(0 1.577)"/><rect class="a" width="9.558" height="47.307" transform="translate(99.687 11.887)"/><path class="a" d="M160.287,72.069V59.49h9.155V72.069h9.685v6.918h-9.685V93.03q-.069,5.211,2.375,6.053a20.754,20.754,0,0,0,6.722.865h.588V106.8h-8.371q-5.188,0-7.84-2.894a11.357,11.357,0,0,1-2.629-7.909V78.987H153.83V72.069Z" transform="translate(-41.161 -47.603)"/><path class="a" d="M179.6,59.49h9.616v8.659H179.6Zm0,12.579h9.616V106.8H179.6Z" transform="translate(-37.218 -47.603)"/><path class="a" d="M194.748,106.792V59.52h24.316a10.111,10.111,0,0,0,1.153.069,7.574,7.574,0,0,1,1.153.058,28.536,28.536,0,0,1,9.132,1.845c2.836,1.153,4.693,3.459,5.569,7.252a12.682,12.682,0,0,1-.623,8.532,14.908,14.908,0,0,1-6.03,5.961A12.141,12.141,0,0,1,235.736,89a14.2,14.2,0,0,1,.461,8.832c-.784,3.6-2.583,5.984-5.373,7.148a23.809,23.809,0,0,1-8.924,1.81H194.69Zm9.95-27.868H219.26a8.278,8.278,0,0,0,4.681-1.1c1.222-.761,1.845-2.2,1.845-4.312s-.576-3.459-1.845-4.278a8.693,8.693,0,0,0-4.681-1.153L204.7,68.017Zm19.4,18.448c1.211-.807,1.81-2.306,1.81-4.381s-.6-3.62-1.81-4.416a8.532,8.532,0,0,0-4.716-1.153L204.7,87.353V98.491h14.689a7.587,7.587,0,0,0,4.716-1.084" transform="translate(-34.91 -47.598)"/><path class="a" d="M255.946,70.4a29.977,29.977,0,0,1,5.834.692,10.3,10.3,0,0,1,5.039,2.871,9.951,9.951,0,0,1,2.675,4.347,18.022,18.022,0,0,1,.749,5.142v21.676H245.6q-5.338,0-8.175-2.929a10.377,10.377,0,0,1-2.56-8.14c.3-4.174,1.776-6.918,4.4-8.071a22.091,22.091,0,0,1,9.431-1.845l12.049-.069c.138-2.848-.6-4.612-2.2-5.338a15.45,15.45,0,0,0-6.1-1.049l-15.277-.069V70.4Zm-6.584,27.741h11.461V90.958h-10.8a.565.565,0,0,1-.265.069h-.265a10.377,10.377,0,0,0-3.459.692,2.882,2.882,0,0,0-1.649,2.929c-.081,1.718.392,2.733,1.418,3.032a14.011,14.011,0,0,0,3.528.53Z" transform="translate(-28.774 -45.934)"/><path class="a" d="M288.92,70.4q6.849.069,10.677,2.71t3.816,10.077v21.907h-9.155V84.236c0-2.41-.392-4.035-1.153-4.866s-2.421-1.257-4.877-1.257l-7.414-.1v27.084H271.66V70.4Z" transform="translate(-23.135 -45.934)"/><path class="a" d="M258.365,10.31V39.573L273.123,22.9h11.6L268.638,39.9l16.084,17.721H272.4L258.365,40.76V57.617H249.21V10.31Z" transform="translate(38.124 1.577)"/><path class="a" d="M344.406,72.77h0a2.686,2.686,0,0,1-2.686-2.686V59.706a2.686,2.686,0,1,1,5.373,0V70.083a2.686,2.686,0,0,1-2.686,2.686" transform="translate(-12.417 -47.981)"/><path class="a" d="M351.356,70.533h0a2.687,2.687,0,0,1-2.686-2.7V51.866a2.686,2.686,0,1,1,5.373,0V67.835a2.7,2.7,0,0,1-2.687,2.7" transform="translate(-11.354 -49.18)"/><path class="a" d="M365.5,70.533h0a2.686,2.686,0,0,1-2.686-2.7V51.866a2.686,2.686,0,1,1,5.373,0V67.835a2.7,2.7,0,0,1-2.686,2.7" transform="translate(-9.191 -49.18)"/><path class="a" d="M358.416,75.922h0a2.686,2.686,0,0,1-2.686-2.686V57.266a2.686,2.686,0,0,1,5.373,0V73.235a2.687,2.687,0,0,1-2.686,2.686" transform="translate(-10.274 -48.354)"/><path class="a" d="M140.812,105.231H111.3a2.225,2.225,0,0,1-2.225-2.225V70.25h9.143v25.5a2.214,2.214,0,0,0,2.2,2.214h11.2L131.542,70.3h9.224l.058,27.672Z" transform="translate(-48.008 -45.957)"/></g></svg>