<svg xmlns="http://www.w3.org/2000/svg" width="57.129" height="28.564" viewBox="0 0 57.129 28.564"><defs><style>.a{fill:#fff;}.b{fill:#cf142b;}.c{fill:#00247d;}</style></defs><rect class="a" width="57.098" height="28.561"/><path class="b" d="M25.695,17.127V28.561H31.4V17.127H57.1V11.418H31.4V0H25.695V11.418H0v5.709Z"/><path class="c" d="M174.91,9.245V0H193.4Z" transform="translate(-141.602)"/><path class="c" d="M174.91,101.43v9.245H193.4Z" transform="translate(-141.602 -82.115)"/><path class="c" d="M46.337,101.43v9.245H27.85Z" transform="translate(-22.547 -82.115)"/><path class="c" d="M46.337,9.245V0H27.85Z" transform="translate(-22.547)"/><path class="c" d="M0,13.94V20.8H13.728Z" transform="translate(0 -11.285)"/><path class="c" d="M241.486,13.94V20.8H227.76Z" transform="translate(-184.388 -11.285)"/><path class="c" d="M241.486,106.855V99.99H227.76Z" transform="translate(-184.388 -80.949)"/><path class="c" d="M0,106.855V99.99H13.728Z" transform="translate(0 -80.949)"/><path class="b" d="M205.574,0H202.4l-19,9.52h3.171L205.6,0" transform="translate(-148.475)"/><path class="b" d="M22.174,99.99H19L0,109.51H3.171L22.2,99.99" transform="translate(0 -80.949)"/><path class="b" d="M15.857,9.527h3.171L0,0V1.6Z"/><path class="b" d="M203.041,99.97H199.87L218.9,109.5v-1.6Z" transform="translate(-161.809 -80.933)"/></svg>